<svg xmlns="http://www.w3.org/2000/svg" width="114" height="76" fill="none"><rect width="114" height="76" fill="#fff" rx="4"/><ellipse cx="59.575" cy="32.575" fill="#E2F4FE" opacity=".6" rx="24.825" ry="25.275" style="mix-blend-mode:multiply"/><path fill="#2B7285" fill-rule="evenodd" d="M30.825 67.234c0 1.209 13.22 2.19 29.527 2.19 16.307 0 29.526-.981 29.526-2.19 0-1.21-13.22-2.19-29.526-2.19-16.307 0-29.527.98-29.527 2.19Z" clip-rule="evenodd" opacity=".097"/><path fill="#FFDF9F" d="M30.825 48.352h59.204v4.984H30.825z" opacity=".8" style="mix-blend-mode:multiply"/><path fill="#FFDF9F" d="M32.083 38.32h56.522v2.334H32.083z" opacity=".9" style="mix-blend-mode:multiply"/><path fill="#FFDF9F" d="M32.083 33.652h56.522v2.334H32.083zM32.083 42.989h56.522v2.334H32.083z" opacity=".8" style="mix-blend-mode:multiply"/><path fill="#FFDF9F" d="M33.846 32.572h3.172v34.284h-3.172zM83.837 31.968h3.172v34.888h-3.172z" style="mix-blend-mode:multiply"/><path fill="#2B7285" fill-rule="evenodd" d="M74.02 30.23c-3.194 1.69-2.489 4.823-2.776 7.746-.287 2.922-.3 3.866-.356 4.578l-6.656 2.998-1.928-2.089 6.28-3.05s.776-4.888 1.513-7.197c.737-2.31 2.531-2.777 3.923-2.985Z" clip-rule="evenodd"/><path fill="#2B7285" d="M77.57 29.929s-2.19 2.643-3.55.302c0 0-1.496.182-2.418 2.023-.918 4.427-1.207 9.908-.913 14.972 2.27-.127 11.852-.429 11.852-.429 0-4.182.34-11.584-.714-15.95-1.526-.496-2.068-.616-4.258-.918Z"/><path fill="#D8D8D8" d="M72.766 20.212c1.99-.712 3.895.16 4.058.887-.4.074-2.873-1.421-5.168.816-.71 1.245-.562 2.43-.562 2.43l-.311-1.141c-.148-.8-.007-2.28 1.983-2.992Z"/><path fill="#8E6E25" d="M75.777 31.933c-.987-.01-1.781-.706-1.773-1.556l.011-1.157c-1.646-.016-2.97-1.177-2.956-2.593l.03-3.13c.017-1.684 1.619-3.035 3.578-3.015 1.863.018 3.342 1.36 3.263 2.962l-.35 7.021c-.042.829-.84 1.477-1.803 1.468Z"/><path fill="#7C5600" d="M73.368 24.662 72.093 26.3l1.259.012.016-1.651Z"/><ellipse cx=".378" cy=".354" fill="#303030" rx=".378" ry=".354" transform="matrix(-.99995 -.00977 -.00977 .99995 72.491 24.181)"/><ellipse cx=".378" cy=".354" fill="#303030" rx=".378" ry=".354" transform="matrix(-.99995 -.00977 -.00977 .99995 74.757 24.204)"/><path fill="#7C5600" d="m77.296 24.046-.021 2.24s1.038-.091 1.017-1.11c-.022-1.02-.996-1.13-.996-1.13Z" opacity=".8" style="mix-blend-mode:multiply"/><path fill="#7C5600" d="m74.476 27.15-2.014-.02s.072.77 1 .713c.93-.058 1.014-.694 1.014-.694Z"/><path fill="#2B7285" fill-rule="evenodd" d="M82.1 30.857c2.24 1.642 2.522 4.875 2.234 7.798-.287 2.922-1.085 2.835-2.578 3.668L75.1 45.321l-1.929-2.088 7.327-3.57s-.45-4.002-.233-5.893c.218-1.892.799-3.146 1.835-2.913Z" clip-rule="evenodd"/><path fill="#00C5A3" fill-rule="evenodd" d="M82.503 46.53a6.215 6.215 0 0 1-2.37 5.348l-1.542 1.205-2.991 2.791.371 8.855-4.116-.604-1.503-7.72a2.53 2.53 0 0 1 .138-1.434l.271-.668a23.293 23.293 0 0 1 5.11-7.714l6.632-.059Z" clip-rule="evenodd"/><path fill="#00C5A3" fill-rule="evenodd" d="M70.888 46.74a14.035 14.035 0 0 0-5.966 14.178l.493 2.684 4.326.448-.686-7.094a4 4 0 0 1 1.46-3.489l1.959-1.592 3.7-5.286-5.286.151Z" clip-rule="evenodd"/><path fill="#907633" fill-rule="evenodd" d="M65.028 44.622s-4.778 2.57-5.051 2.153c-.274-.416 2.755-2.346 2.755-2.346l-1.526-.127s1.115-.823 2.113-.57l1.709.89Z" clip-rule="evenodd"/><path fill="#977833" fill-rule="evenodd" d="M69.076 63.835c-.207.71.352 1.416.352 1.416l.192.606-.754.603c-.553.442-1.28.63-1.97.471-.392-.09-.665-.259-.418-.575.574-.739.18-2.784.18-2.784s2.624-.447 2.418.263ZM75.443 64.37c-.227.625.305 1.222.305 1.222l.172.523-.767.55c-.562.402-1.29.587-1.97.471-.386-.066-.651-.205-.397-.489.593-.661.266-2.432.266-2.432s2.619-.471 2.391.154Z" clip-rule="evenodd" style="mix-blend-mode:multiply"/><path fill="#2B7285" fill-rule="evenodd" d="M69.565 65.793c.288.045.256 1.681.256 1.681s-3.009.521-3.698.562c-1.71.101-2.676.09-2.867-.309-.192-.4 2.11-1.268 2.218-1.39a12.05 12.05 0 0 1 1.04-.925c.331-.249.444.855.444.855.443.855 2.319-.519 2.607-.474ZM75.874 65.877c.295.012.436 1.641.436 1.641s-2.98.858-3.67.977c-1.716.295-2.69.393-2.926.018-.236-.376 1.994-1.499 2.09-1.632.297-.364.615-.71.951-1.037.308-.285.538.8.538.8.538.798 2.285-.779 2.58-.767Z" clip-rule="evenodd" style="mix-blend-mode:multiply"/><path fill="#D8D8D8" d="M78.498 24.427s-.493-.32-.946.145c-1.06.649-1.192-.796-.798-1.27.563-.677.506-1.297-.24-2.405 0 0 2.526.466 1.984 3.53Z"/><path fill="#7C5600" d="M53.346 64.8c-.176-9.103-.79-10.508-.79-10.508l3.9-.228-.498 3.306-.839 5.803-.045 1.999-1.728-.373ZM48.486 55.28s-.17.17.349 9.998l1.456.374 2.082-10.903-3.887.531Z" opacity=".8" style="mix-blend-mode:multiply"/><path fill="#2B7285" d="M53.134 48.978c2.19 1.133 3.68 1.795 4.209 5.042l-2.835.417-6.502-7.67 1.667-.444c1.75 1.668 1.449 1.614 3.461 2.655Z"/><path fill="#2B7285" fill-rule="evenodd" d="M57.339 54.066c-.572.055-7.633 1.28-8.916 2.261-3.028-2.288-4.27-2.888-5.845-3.495-1.576-.607-3.43-.96-4.42-3.367-.656-1.975-.156-3.559-.156-3.559s7.92.25 11.588.417" clip-rule="evenodd"/><path fill="#C4C4C4" d="M46.567 31.087c-.058-2.144.002-6.358.696-8.294.098-.273-.01-.716-.166-.96-.352-.546.331-.962.936-.724l.498.195c.18.07.339.187.442.35.543.855.997 2.28 1.07 3.443l.197 3.055c.101 1.55-1.041 2.935-2.594 2.935-1.24 0-.794-.31-1.08 0 .013.453.03.814.048 1.041.11 1.389-.323-.742-.047-1.041Z" opacity=".7"/><path fill="#FE635A" fill-rule="evenodd" d="M48.484 64.332c-.079-.177-.576 1.932-.644 2.041-.069.108 2.446.772 2.692.852.625.203 1.778.544 2.633.196.856-.349-1.648-1.43-1.648-1.43l-.62-1.041c-.154-.26-.855.348-.855.348-.416.46-1.478-.788-1.558-.966ZM52.834 64.213c-.232.057-.325 1.95-.325 1.95s2.352.547 2.896.582c1.352.086 2.12.056 2.3-.41.182-.466-2.352-1.37-2.43-1.509-.236-.374-.228-.58-.496-.907-.245-.282-.027.759-.027.759-.724.739-1.686-.522-1.918-.465Z" clip-rule="evenodd" style="mix-blend-mode:multiply"/><path fill="#FFDF9F" fill-rule="evenodd" d="m41.17 30.678-1.058 4.05-2.193 11.456 11.692.166-.771-14.755-7.67-.917Z" clip-rule="evenodd" opacity=".9"/><path fill="#F7544B" fill-rule="evenodd" d="m46.839 31.345.5 16.09 2.334-.5-.834-15.34-2-.25Z" clip-rule="evenodd" opacity=".7" style="mix-blend-mode:multiply"/><path fill="#8E6E25" fill-rule="evenodd" d="m46.828 31.689-.09-1.59c1.345.01 2.444-1.087 2.454-2.448l.022-3.01c.012-1.62-1.276-2.943-2.876-2.955-1.522-.012-2.75 1.257-2.71 2.798l.279 7.234a1.47 1.47 0 0 0 1.45 1.44 1.47 1.47 0 0 0 1.471-1.47Z" clip-rule="evenodd"/><path fill="#003147" fill-rule="evenodd" d="M46.64 25.54a.378.378 0 1 1-.755-.006.378.378 0 0 1 .755.005ZM48.905 25.556a.378.378 0 1 1-.755-.005.378.378 0 0 1 .755.005Z" clip-rule="evenodd"/><path fill="#7C5600" fill-rule="evenodd" d="m47.546 25.47.893 1.82-.906-.007.013-1.812ZM46.471 27.88l1.36.01s-.06.821-.686.745c-.625-.076-.674-.756-.674-.756Z" clip-rule="evenodd" opacity=".596" style="mix-blend-mode:multiply"/><path fill="#F7544B" fill-rule="evenodd" d="m41.17 30.678-1.584 5.085-1.834 11.505 4.918.583.417-16.756-1.917-.417Z" clip-rule="evenodd" opacity=".7" style="mix-blend-mode:multiply"/><path fill="#9A7216" fill-rule="evenodd" d="M53.303 43.724s4.446-.634 4.387-1.142c-.059-.508-3.044-.358-3.044-.358l.893-.996s-1.81.26-2.3 1.052l.064 1.444Z" clip-rule="evenodd"/><path fill="#FE635A" fill-rule="evenodd" d="M48.727 31.605c.028-.088 1.054.253 1.487 2.303.628 2.97.865 7.6 1.365 7.87l1.78.172.56 2.024c-3.503 0-4.108.397-4.41-.433-.453-2.04-.333-3.026-.72-8.673l-.062-3.263Z" clip-rule="evenodd"/><path fill="#F6544B" fill-rule="evenodd" d="M48.301 31.61c.028-.087 1.054.254 1.487 2.304.628 2.97.865 7.6 1.365 7.87l1.78.172.56 2.024c-3.504 0-4.108.397-4.41-.434-.453-2.038-.333-3.025-.72-8.672L48.3 31.61Z" clip-rule="evenodd" opacity=".3" style="mix-blend-mode:multiply"/><path fill="#FE635A" fill-rule="evenodd" d="m37.97 32.727-4.079 6.625c-.412.782.242 2.014 1.058 2.361l5.096 3.96 1.618-2.513-4.138-3.017a.594.594 0 0 1-.295-.791l1.721-1.943s1.36-1.963 2.039-3.172c.68-1.208 1.133-3.387 1.133-3.387s-1.586-.313-2.492.14c-.907.453-1.352 1.148-1.662 1.737Z" clip-rule="evenodd"/><path fill="#8E6E25" fill-rule="evenodd" d="M41.085 43.714s3.229-.737 3.448 2.308c.06.416-2.238-1.228-2.238-1.228l.83.887s-1.93-.234-2.658-.846l.618-1.121Z" clip-rule="evenodd"/><path fill="#D2D1D1" d="M41.905 22.752c1.038-1.98 2.773-2.834 4.582-2.213l.778 1.442c.026.019.044.051.053.097l-.053-.097c-.224-.165-1.048.67-1.76 2.287-.153.348-1.612-.015-1.651.929-.084 2.037-.046 3.918 0 5.37l-2.517-.083c0-1.584-.47-5.752.568-7.732Z" opacity=".9"/><path fill="#D2D1D1" d="m47.215 21.944-.727-1.399c3.798-.645 3.718 5.135 3.625 8.151l-.99-.35c.802-4.518-1.06-6.255-1.908-6.402Z"/><path fill="#7C5600" fill-rule="evenodd" d="m43.904 25.804-.012 1.637s-.939-.081-.905-.825c.034-.744.917-.812.917-.812Z" clip-rule="evenodd" opacity=".8" style="mix-blend-mode:multiply"/><path fill="#00C5A3" fill-rule="evenodd" d="M41.99 46.144a1.887 1.887 0 0 0-.135.82.433.433 0 0 1-.863.05c-.02-.316.017-.8.208-1.225.2-.445.602-.869 1.285-.869.754 0 1.227.382 1.488.846.243.434.296.927.296 1.223v19.66a.433.433 0 0 1-.865 0v-19.66c0-.22-.044-.546-.186-.8-.126-.225-.329-.403-.733-.403-.243 0-.389.121-.496.358Z" clip-rule="evenodd" opacity=".6"/><path fill="#00C5A3" d="M54.386 41.03h2.567l-.302 3.775h-1.963l-.302-3.776Z" opacity=".9"/><path fill="#00C5A3" d="M54.091 41.243h3.172l-.222-.755h-2.727l-.223.755Z" style="mix-blend-mode:multiply"/><path fill="#2B7285" fill-rule="evenodd" d="M81.642 31.007c-.753.182-1.194 1.323-1.377 2.915-.217 1.892.233 5.893.233 5.893l-7.327 3.507 1.928 2.151 6.657-2.998c.223-.124.43-.228.623-.324l.22-.111c.023-3.767-.058-8.049-.763-10.97a39.63 39.63 0 0 0-.194-.063ZM74.05 30.15c-3.194 1.69-2.49 4.823-2.776 7.745-.288 2.923-.3 3.867-.356 4.578l-6.656 2.998-1.929-2.088 6.281-3.05s.775-4.888 1.512-7.197c.738-2.31 2.532-2.778 3.923-2.986Z" clip-rule="evenodd" opacity=".3" style="mix-blend-mode:multiply"/><path fill="#00C5A3" fill-rule="evenodd" d="M71.598 52.568a23.298 23.298 0 0 1 4.364-6.07l.31-.008-3.7 5.286-.974.792Z" clip-rule="evenodd" style="mix-blend-mode:multiply"/><path fill="#00C5A3" fill-rule="evenodd" d="M87.168 67.931s2.832-1.108 2.875-4.303c.044-3.195 2.644-5.928 2.644-5.928s-4.775.042-5.899 3.902c-1.123 3.86.38 6.33.38 6.33Z" clip-rule="evenodd" opacity=".459" style="mix-blend-mode:multiply"/><path fill="#00C5A3" fill-rule="evenodd" d="M83.65 58.951s2.332 2.288 1.623 4.595c-.709 2.308 1.895 4.385 1.895 4.385s2.484-9.303-3.518-8.98Z" clip-rule="evenodd" opacity=".459" style="mix-blend-mode:multiply"/><path fill="#00C5A3" fill-rule="evenodd" d="M93.25 60.524s-2.93 1.45-2.978 3.862c-.048 2.413-3.17 3.58-3.17 3.58s.545-9.613 6.148-7.442Z" clip-rule="evenodd" opacity=".459" style="mix-blend-mode:multiply"/><path fill="#2B7285" fill-rule="evenodd" d="M84.26 67.804c0 .218 1.273.396 2.842.396 1.569 0 2.84-.178 2.84-.396 0-.22-1.271-.397-2.84-.397-1.57 0-2.841.178-2.841.397Z" clip-rule="evenodd" opacity=".094"/><path fill="#00C5A3" fill-rule="evenodd" d="M34.281 67.6s2.373-2.22 1.187-5.453c-1.187-3.233.332-6.997.332-6.997s-4.703 1.902-4.329 6.225c.375 4.323 2.81 6.225 2.81 6.225Z" clip-rule="evenodd" opacity=".427" style="mix-blend-mode:multiply"/><path fill="#00C5A3" fill-rule="evenodd" d="M27.25 59.938s3.24 1.393 3.43 3.99c.19 2.596 3.62 3.672 3.62 3.672s-1.143-10.322-7.05-7.662Z" clip-rule="evenodd" opacity=".427" style="mix-blend-mode:multiply"/><path fill="#00C5A3" fill-rule="evenodd" d="M37.45 57.7s-2.37 2.604-1.477 5.055c.894 2.452-1.78 4.845-1.78 4.845s-3.2-9.904 3.257-9.9Z" clip-rule="evenodd" opacity=".427" style="mix-blend-mode:multiply"/><path fill="#2B7285" fill-rule="evenodd" d="M31 67.548c0 .22 1.274.399 2.846.399s2.846-.179 2.846-.399c0-.22-1.274-.398-2.846-.398S31 67.328 31 67.548Z" clip-rule="evenodd" opacity=".094"/><path fill="#907633" fill-rule="evenodd" d="M74.998 45.183s-4.363 2.345-4.598 1.87c-.236-.476 1.5-1.87 1.5-1.87l-.738-.41s2.071-1.16 3.056-.862l.78 1.272Z" clip-rule="evenodd"/></svg>
